<?xml version="1.0" encoding="UTF-8"?>
<svg width="1440px" height="1413px" viewBox="0 0 1440 1413" version="1.1" xmlns="http://www.w3.org/2000/svg" xmlns:xlink="http://www.w3.org/1999/xlink">
    <title>Fill 2</title>
    <defs>
        <linearGradient x1="48.5509492%" y1="-1.89872368%" x2="50%" y2="84.5828718%" id="linearGradient-1">
            <stop stop-color="#4992FC" offset="0%"></stop>
            <stop stop-color="#FFFFFF" offset="100%"></stop>
        </linearGradient>
    </defs>
    <g id="Jobylon" stroke="none" stroke-width="1" fill="none" fill-rule="evenodd">
        <g id="Startsida" transform="translate(0.000000, -910.000000)" fill="url(#linearGradient-1)">
            <path d="M810.986669,1142.90183 C805.529178,1143.1688 797.181601,1143.43577 786.280648,1143.43577 C735.690125,1143.43577 629.654859,1137.48398 496.949437,1096.60668 C369.645387,1057.39399 199.789742,965.950075 100.853423,965.950075 C-251.610721,965.950075 -61.426271,1536.91316 -61.426271,1536.91316 C71.8543627,1994.98077 456.628537,2322.06199 910.596406,2322.06199 C1174.01506,2322.06199 1415.37927,2211.97752 1597.80538,2030.04762 C1748.04773,1880.04379 1858.31992,1681.29499 1907.67584,1455.347 C2003.20298,1038.64352 1858.78289,46.8311086 1858.78289,46.8311086 C1855.21939,26.6672767 1851.17888,6.70759575 1846.6754,-12.9380068 C1843.2101,96.8323864 1833.72613,196.630791 1815.614,275.715727 C1728.43443,674.783714 1451.78593,988.642238 1099.50417,1099.37057 L1099.50417,1099.35487 L1099.50417,1099.37057 C1015.07439,1125.83167 926.309491,1140.70328 834.850917,1142.28938 C826.896168,1142.43072 818.927389,1142.50924 810.986669,1142.90183 Z" id="Fill-2"></path>
        </g>
    </g>
</svg>