<svg width="14" height="14" viewBox="0 0 14 14" fill="none" xmlns="http://www.w3.org/2000/svg">
<path d="M8.75 9.9375C8.75 10.1836 8.53125 10.375 8.3125 10.375H5.6875C5.44141 10.375 5.25 10.1836 5.25 9.9375V8.625H0V12.5625C0 13.2734 0.601562 13.875 1.3125 13.875H12.6875C13.3711 13.875 14 13.2734 14 12.5625V8.625H8.75V9.9375ZM12.6875 3.375H10.5V2.0625C10.5 1.37891 9.87109 0.75 9.1875 0.75H4.8125C4.10156 0.75 3.5 1.37891 3.5 2.0625V3.375H1.3125C0.601562 3.375 0 4.00391 0 4.6875V7.75H14V4.6875C14 4.00391 13.3711 3.375 12.6875 3.375ZM9.1875 3.375H4.8125V2.0625H9.1875V3.375Z" fill="#4992FC"/>
</svg>
